<svg xmlns="http://www.w3.org/2000/svg" viewBox="0 0 1200 630" width="1200" height="630">
  <defs>
    <linearGradient id="pulse" x1="0" y1="0" x2="320" y2="0" gradientUnits="userSpaceOnUse">
      <stop offset="0%" stop-color="#fb7185"/>
      <stop offset="60%" stop-color="#ef4444"/>
      <stop offset="100%" stop-color="#dc2626"/>
    </linearGradient>
    <clipPath id="lensclip">
      <circle cx="200" cy="150" r="65"/>
    </clipPath>
  </defs>

  <!-- Slate background -->
  <rect width="1200" height="630" fill="#0f172a"/>

  <!-- Subtle gradient accent in lower-right corner -->
  <circle cx="1200" cy="630" r="480" fill="#dc2626" opacity="0.08"/>

  <!-- Brand icon (scaled up version of app icon), top-left -->
  <g transform="translate(80, 80)">
    <rect width="240" height="240" rx="42" fill="#0b1428" stroke="#1e293b" stroke-width="2"/>
    <g transform="translate(40, 40) scale(5)">
      <path d="M 2 16 H 7 L 9 12 L 11 21 L 14 16 H 18 L 20 11 L 22 22 L 25 16 H 30"
            stroke="url(#pulse)" stroke-width="1.5" fill="none"
            stroke-linecap="round" stroke-linejoin="round" opacity="0.7"/>
      <circle cx="20" cy="15" r="6.5" fill="#0b1428" opacity="0.55"/>
      <g clip-path="url(#lensclip)">
        <path d="M 8 15 L 14 15 L 18 5 L 22 27 L 26 15 L 32 15"
              stroke="url(#pulse)" stroke-width="2.4" fill="none"
              stroke-linecap="round" stroke-linejoin="round"/>
      </g>
      <circle cx="20" cy="15" r="6.5" fill="none" stroke="#cbd5e1" stroke-width="1.4"/>
      <line x1="24.6" y1="19.6" x2="28.5" y2="23.5" stroke="#cbd5e1" stroke-width="2" stroke-linecap="round"/>
    </g>
  </g>

  <!-- Title block, right of the icon -->
  <g font-family="-apple-system, BlinkMacSystemFont, 'Segoe UI', Roboto, sans-serif" fill="#ffffff">
    <text x="370" y="170" font-size="64" font-weight="700" letter-spacing="-1">Cardiology Trial Match</text>
    <text x="370" y="220" font-size="28" font-weight="400" fill="#cbd5e1">Landmark Cardiology Trials | EBM Education Tool</text>

    <!-- Body line -->
    <text x="370" y="310" font-size="26" font-weight="400" fill="#e2e8f0">
      Match patient profiles to inclusion and exclusion
    </text>
    <text x="370" y="346" font-size="26" font-weight="400" fill="#e2e8f0">
      criteria of 30 landmark cardiology trials.
    </text>
  </g>

  <!-- Topic chips at bottom-left -->
  <g transform="translate(80, 440)" font-family="-apple-system, BlinkMacSystemFont, 'Segoe UI', Roboto, sans-serif">
    <g transform="translate(0, 0)">
      <rect width="280" height="64" rx="32" fill="#dc2626"/>
      <text x="34" y="42" font-size="22" font-weight="500" fill="#ffffff">Heart failure</text>
      <rect x="190" y="20" width="56" height="24" rx="12" fill="rgba(255,255,255,0.22)"/>
      <text x="218" y="38" font-size="14" font-weight="600" fill="#ffffff" text-anchor="middle">17</text>
    </g>
    <g transform="translate(300, 0)">
      <rect width="340" height="64" rx="32" fill="none" stroke="#475569" stroke-width="1.5"/>
      <text x="34" y="42" font-size="22" font-weight="500" fill="#cbd5e1">Atrial fibrillation</text>
      <rect x="248" y="20" width="56" height="24" rx="12" fill="rgba(203,213,225,0.18)"/>
      <text x="276" y="38" font-size="14" font-weight="600" fill="#cbd5e1" text-anchor="middle">13</text>
    </g>
  </g>

  <!-- URL footer -->
  <g font-family="-apple-system, BlinkMacSystemFont, 'Segoe UI', Roboto, sans-serif">
    <text x="80" y="570" font-size="22" font-weight="500" fill="#94a3b8">cardiologytrialmatch.org</text>
    <text x="1120" y="570" font-size="18" font-weight="400" fill="#64748b" text-anchor="end">Open source · MIT licensed · DOI 10.5281/zenodo.19803460</text>
  </g>
</svg>
